# xmcd CD database file
#
# Track frame offsets:
#	150
#	6769
#	29044
#	41691
#	56895
#	70133
#	86500
#	103683
#	118521
#	134380
#	149549
#	161024
#	173755
#	191662
#	206373
#
# Disc length: 2985 seconds
#
# Revision: 1
# Processed by: cddbd v1.5.1PL0 Copyright (c) Steve Scherf et al.
# Submitted via: CDex 1.51
#
DISCID=d80ba70f
DTITLE=The Blues Trio - Sometimes
DYEAR=2004
DGENRE=Blues
TTITLE0=Sometimes
TTITLE1=Dust My Broom
TTITLE2=Walk On
TTITLE3=Mama Keep Your Big Mouth Shut
TTITLE4=Mercury Boogie
TTITLE5=I'm Ready
TTITLE6=I Can't Hold Out
TTITLE7=Rattlesnake Daddy
TTITLE8=Key To The Highway
TTITLE9=Statesboro Blues
TTITLE10=Custared Pie Blues
TTITLE11=Me And The Devil Blues
TTITLE12=Down By The River Side/When The Saints Go Marchin' In
TTITLE13=Rollin' And Tumblin'
TTITLE14=Who Do You Love
EXTD=YEAR: 2004
EXTT0=
EXTT1=
EXTT2=
EXTT3=
EXTT4=
EXTT5=
EXTT6=
EXTT7=
EXTT8=
EXTT9=
EXTT10=
EXTT11=
EXTT12=
EXTT13=
EXTT14=
PLAYORDER=
